<?xml version="1.0" encoding="UTF-8" standalone="no"?>
<!-- Created with Inkscape (http://www.inkscape.org/) -->

<svg
   xmlns:osb="http://www.openswatchbook.org/uri/2009/osb"
   xmlns:dc="http://purl.org/dc/elements/1.1/"
   xmlns:cc="http://creativecommons.org/ns#"
   xmlns:rdf="http://www.w3.org/1999/02/22-rdf-syntax-ns#"
   xmlns:svg="http://www.w3.org/2000/svg"
   xmlns="http://www.w3.org/2000/svg"
   xmlns:xlink="http://www.w3.org/1999/xlink"
   xmlns:sodipodi="http://sodipodi.sourceforge.net/DTD/sodipodi-0.dtd"
   xmlns:inkscape="http://www.inkscape.org/namespaces/inkscape"
   width="181.40933mm"
   height="114.59108mm"
   viewBox="0 0 181.40933 114.59108"
   version="1.1"
   id="svg8"
   sodipodi:docname="gesproticLOGO.svg"
   inkscape:version="0.92.3 (2405546, 2018-03-11)">
  <defs
     id="defs2">
    <linearGradient
       id="linearGradient5992"
       osb:paint="solid">
      <stop
         style="stop-color:#000000;stop-opacity:1;"
         offset="0"
         id="stop5990" />
    </linearGradient>
    <linearGradient
       id="linearGradient4549"
       osb:paint="solid">
      <stop
         style="stop-color:#4091be;stop-opacity:1;"
         offset="0"
         id="stop4547" />
    </linearGradient>
    <linearGradient
       inkscape:collect="always"
       xlink:href="#linearGradient5992"
       id="linearGradient5994"
       x1="15.313582"
       y1="159.14426"
       x2="196.19467"
       y2="159.14426"
       gradientUnits="userSpaceOnUse" />
  </defs>
  <sodipodi:namedview
     id="base"
     pagecolor="#ffffff"
     bordercolor="#666666"
     borderopacity="1.0"
     inkscape:pageopacity="0.0"
     inkscape:pageshadow="2"
     inkscape:zoom="1"
     inkscape:cx="288.76629"
     inkscape:cy="218.13891"
     inkscape:document-units="mm"
     inkscape:current-layer="layer1"
     showgrid="false"
     inkscape:snap-text-baseline="false"
     inkscape:window-width="1366"
     inkscape:window-height="706"
     inkscape:window-x="-8"
     inkscape:window-y="-8"
     inkscape:window-maximized="1"
     showguides="true"
     inkscape:guide-bbox="true"
     inkscape:lockguides="false" />
  <metadata
     id="metadata5">
    <rdf:RDF>
      <cc:Work
         rdf:about="">
        <dc:format>image/svg+xml</dc:format>
        <dc:type
           rdf:resource="http://purl.org/dc/dcmitype/StillImage" />
        <dc:title></dc:title>
      </cc:Work>
    </rdf:RDF>
  </metadata>
  <g
     inkscape:label="Layer 1"
     inkscape:groupmode="layer"
     id="layer1"
     transform="translate(-14.326672,-35.439463)">
    <path
       style="fill:#3c98c1;fill-opacity:0.96744187;stroke:none;stroke-width:0.06485792;stroke-linecap:butt;stroke-linejoin:miter;stroke-miterlimit:4;stroke-dasharray:none;stroke-opacity:1"
       d="m 99.277545,56.446215 c 0,0 -31.209168,-5.378145 -32.529192,14.987952 -0.660012,10.183051 3.742506,11.10954 5.129887,11.250605 3.461133,0.351917 4.433019,-3.755967 4.433019,-3.755967 5.930062,-18.884656 22.966286,-22.48259 22.966286,-22.48259 z"
       id="path4553"
       inkscape:connector-curvature="0"
       sodipodi:nodetypes="csssc" />
    <path
       style="fill:#3796c6;fill-opacity:1;stroke:none;stroke-width:0.0663669;stroke-linecap:butt;stroke-linejoin:miter;stroke-miterlimit:4;stroke-dasharray:none;stroke-opacity:1"
       d="m 118.67315,61.131955 c 0,0 -5.59423,-26.879668 -20.330297,-25.651661 -14.736061,1.228005 -15.246494,11.46138 -8.391369,11.597825 8.072038,0.160667 15.717476,-2.244753 28.721666,14.053836 z"
       id="path4564"
       inkscape:connector-curvature="0"
       sodipodi:nodetypes="cssc" />
    <path
       style="fill:#3696c6;fill-opacity:1;stroke:none;stroke-width:0.06447052;stroke-linecap:butt;stroke-linejoin:miter;stroke-miterlimit:4;stroke-dasharray:none;stroke-opacity:1"
       d="m 89.470501,68.002625 c 0,0 -15.707878,30.978812 -0.323326,40.046355 14.638965,8.6281 19.856935,-3.36583 13.918065,-7.35737 C 92.27168,91.186164 89.089029,85.487883 89.470501,68.002625 Z"
       id="path4566"
       inkscape:connector-curvature="0"
       sodipodi:nodetypes="cscc" />
    <path
       style="fill:#595a5c;fill-opacity:1;stroke:none;stroke-width:0.06773844;stroke-linecap:butt;stroke-linejoin:miter;stroke-miterlimit:4;stroke-dasharray:none;stroke-opacity:1"
       d="m 120.54243,84.142708 c 0,0 27.96692,-18.020941 18.2179,-31.708979 -9.74904,-13.688035 -14.87503,-5.371303 -13.44536,-1.453233 2.28029,6.249178 5.05313,14.103784 -4.77254,33.162212 z"
       id="path4568"
       inkscape:connector-curvature="0"
       sodipodi:nodetypes="cssc" />
    <g
       aria-label="G"
       transform="scale(1.0278441,0.9729102)"
       style="font-style:normal;font-variant:normal;font-weight:normal;font-stretch:normal;font-size:37.02522659px;line-height:1.25;font-family:'Futura Round Medium';-inkscape-font-specification:'Futura Round Medium, ';letter-spacing:0px;word-spacing:0px;fill:#5b5b5b;fill-opacity:1;stroke:none;stroke-width:0.92563051"
       id="text844">
      <path
         d="m 34.024027,144.39126 h -4.80894 q -0.867779,0 -1.120881,-0.23502 -0.235023,-0.2531 -0.235023,-1.12088 v -0.79547 q 0,-0.86778 0.235023,-1.12088 0.253102,-0.23502 1.120881,-0.23502 h 7.484592 q 0.8497,0 1.102802,0.19886 0.271181,0.18079 0.271181,0.75931 0,3.81461 -1.265511,6.21908 -1.355904,2.58526 -3.760375,4.19427 -2.946832,1.9525 -6.544498,1.9525 -3.127619,0 -5.893664,-1.50054 -3.525351,-1.93442 -5.333223,-5.53209 -1.337826,-2.67565 -1.337826,-5.73095 0,-3.81461 2.006739,-6.96031 1.862108,-2.8926 4.971649,-4.48352 2.784123,-1.41014 5.929821,-1.41014 5.405539,0 9.437094,4.2485 0.361574,0.37965 0.361574,0.70507 0,0.36157 -0.632755,0.97625 l -0.668913,0.63275 q -0.614676,0.5966 -0.958172,0.5966 -0.397732,0 -0.759306,-0.47005 -1.102803,-1.42822 -2.946832,-2.29599 -1.84403,-0.88586 -3.778454,-0.88586 -3.977319,0 -6.725285,2.85644 -2.494864,2.58525 -2.494864,6.49026 0,4.14003 2.946832,6.77952 2.766045,2.47679 6.002136,2.47679 2.784124,0 4.953571,-1.84403 2.169447,-1.86211 2.440627,-4.46545 z"
         style="fill:#5b5b5b;fill-opacity:1;stroke-width:0.92563051"
         id="path946"
         inkscape:connector-curvature="0" />
    </g>
    <g
       aria-label="E"
       transform="scale(1.0193397,0.98102722)"
       style="font-style:normal;font-variant:normal;font-weight:normal;font-stretch:normal;font-size:37.89638138px;line-height:1.25;font-family:'Futura Round Medium';-inkscape-font-specification:'Futura Round Medium, ';letter-spacing:0px;word-spacing:0px;fill:#5b5b5b;fill-opacity:1;stroke:none;stroke-width:0.94740957"
       id="text848">
      <path
         d="m 46.14147,131.18513 v 6.05084 h 8.437867 q 0.9067,0 1.147253,0.24055 0.240554,0.24056 0.240554,1.14726 v 0.81418 q 0,0.88819 -0.240554,1.14725 -0.240553,0.24055 -1.147253,0.24055 H 46.14147 v 8.43787 h 8.733932 q 0.906701,0 1.147254,0.24055 0.259057,0.24056 0.259057,1.14726 v 0.81418 q 0,0.9067 -0.259057,1.14725 -0.240553,0.24055 -1.147254,0.24055 H 43.717434 q -0.9067,0 -1.147253,-0.24055 -0.240554,-0.24055 -0.240554,-1.14725 v -22.48248 q 0,-0.88819 0.240554,-1.14725 0.259057,-0.24055 1.147253,-0.24055 h 11.157968 q 0.906701,0 1.147254,0.24055 0.259057,0.25906 0.259057,1.14725 v 0.81418 q 0,0.8882 -0.259057,1.14726 -0.240553,0.24055 -1.147254,0.24055 z"
         style="fill:#5b5b5b;fill-opacity:1;stroke-width:0.94740957"
         id="path943"
         inkscape:connector-curvature="0" />
    </g>
    <g
       aria-label="S"
       transform="scale(1.0144085,0.98579615)"
       style="font-style:normal;font-variant:normal;font-weight:normal;font-stretch:normal;font-size:36.35261917px;line-height:1.25;font-family:'Futura Round Medium';-inkscape-font-specification:'Futura Round Medium, ';letter-spacing:0px;word-spacing:0px;fill:#5b5b5b;fill-opacity:1;stroke:none;stroke-width:0.9088155"
       id="text852">
      <path
         d="m 72.65335,131.7461 -0.692262,0.40825 q -0.639011,0.39051 -0.869765,0.39051 -0.426007,0 -0.798763,-0.56801 -0.994017,-1.54427 -3.053052,-1.54427 -1.597527,0 -2.591544,0.90526 -0.958517,0.86977 -0.958517,2.11229 0,1.20702 1.15377,2.00578 0.532509,0.39051 1.011767,0.62126 0.497009,0.21301 2.8933,1.18927 3.035301,1.24252 4.331073,2.94655 1.349023,1.77503 1.349023,4.18907 0,3.49681 -2.467292,5.76885 -2.130036,1.97029 -5.32509,1.97029 -3.159554,0 -5.307341,-2.02354 -0.905265,-0.86976 -1.615277,-2.23654 -0.692262,-1.36677 -0.692262,-2.27204 0,-0.40825 0.213004,-0.56801 0.230753,-0.1775 0.923015,-0.33725 l 1.082769,-0.23076 q 0.550259,-0.12425 0.727762,-0.12425 0.656761,0 0.781013,0.94077 0.213004,1.45552 1.224771,2.37854 1.15377,1.02952 2.804548,1.02952 1.846031,0 2.982051,-1.31353 0.994017,-1.13602 0.994017,-2.73354 0,-2.05904 -1.686279,-3.17731 -0.60351,-0.40825 -1.118269,-0.63901 -0.514759,-0.2485 -2.999801,-1.29577 -4.970085,-2.09453 -4.970085,-6.1416 0,-3.24831 2.769047,-5.07659 2.023535,-1.33127 4.508577,-1.33127 3.851816,0 5.964102,3.1063 0.284005,0.42601 0.284005,0.69226 0,0.30176 -0.159753,0.46151 -0.142003,0.15975 -0.692262,0.49701 z"
         style="fill:#5b5b5b;fill-opacity:1;stroke-width:0.9088155"
         id="path940"
         inkscape:connector-curvature="0" />
    </g>
    <g
       aria-label="P"
       transform="matrix(1.0930629,0,0,0.91486047,0.29765625,0)"
       style="font-style:normal;font-variant:normal;font-weight:normal;font-stretch:normal;font-size:37.09751892px;line-height:1.25;font-family:'Futura Round Medium';-inkscape-font-specification:'Futura Round Medium, ';letter-spacing:0px;word-spacing:0px;fill:#5b5b5b;fill-opacity:1;stroke:none;stroke-width:0.92743808"
       id="text856">
      <path
         d="m 77.133093,151.0499 v 11.23612 c 0,0.59172 -0.07849,0.96608 -0.235482,1.12307 -0.156989,0.15698 -0.228774,0.23548 -0.820499,0.23548 h -1.014385 c -0.591725,0 -0.966081,-0.0785 -1.123069,-0.23548 -0.156989,-0.15699 -0.235483,-0.53135 -0.235483,-1.12307 v -24.15579 c 0,-0.59172 0.07849,-0.96608 0.235483,-1.12307 0.156988,-0.15699 0.531344,-0.23548 1.123069,-0.23548 h 2.559445 c 2.282367,0 4.2152,0.16303 5.193357,0.48908 1.99905,0.55558 2.667219,1.40007 3.405565,3.11627 0.543421,1.07477 0.588203,2.52323 0.588203,3.73083 0,2.12538 -0.632943,4.15759 -2.069989,5.53426 -1.461198,1.40081 -2.859671,1.40778 -5.564698,1.40778 z m 0,-3.82477 h 1.697351 c 1.78725,0 3.528679,-0.0135 3.876401,-0.21903 0.845321,-0.71248 1.267981,-1.69667 1.267981,-2.95258 0,-1.30421 -0.464926,-2.28841 -1.394779,-2.95259 -0.543034,-0.32411 -2.125379,-0.29109 -3.912629,-0.29109 h -1.534325 z"
         style="fill:#5b5b5b;fill-opacity:1;stroke-width:0.92743808"
         id="path937"
         inkscape:connector-curvature="0"
         sodipodi:nodetypes="cscsscsscssccscsccscscscc" />
    </g>
    <g
       aria-label="R"
       transform="scale(1.0477897,0.95439)"
       style="font-style:normal;font-variant:normal;font-weight:normal;font-stretch:normal;font-size:35.48751068px;line-height:1.25;font-family:'Futura Round Medium';-inkscape-font-specification:'Futura Round Medium, ';letter-spacing:0px;word-spacing:0px;fill:#5b5b5b;fill-opacity:1;stroke:none;stroke-width:0.88718778"
       id="text860">
      <path
         d="m 102.61979,144.76441 6.74803,10.54523 c 0.3119,0.42742 0.46785,0.73932 0.46785,0.9357 0,0.2657 -0.0982,0.45631 -0.29457,0.57182 -0.19639,0.10397 -0.53717,0.15596 -1.02235,0.15596 h -1.38623 c -0.48518,0 -0.77975,-0.0231 -0.88372,-0.0693 -0.10397,-0.0577 -0.29457,-0.28877 -0.57182,-0.69311 l -6.852001,-11.44628 h -0.998243 v 10.97246 c 0,0.56605 -0.07509,0.92416 -0.225262,1.07433 -0.150175,0.15018 -0.508285,0.22527 -1.074329,0.22527 h -0.613251 c -0.566044,0 -0.924154,-0.0751 -1.074329,-0.22527 -0.150175,-0.15017 -0.225262,-0.50828 -0.225262,-1.07433 v -23.19594 c 0,-0.55449 0.07509,-0.9126 0.225262,-1.07433 0.161727,-0.15017 0.519837,-0.22526 1.074329,-0.22526 h 2.876429 c 1.524847,0 2.760907,0.10397 3.708167,0.3119 0.94726,0.20794 1.79055,0.56027 2.52987,1.057 0.87795,0.58915 1.57684,1.40357 2.09668,2.44324 0.48518,0.98191 0.72777,2.02736 0.72777,3.13634 0,1.65193 -0.47941,3.09014 -1.43822,4.31465 -0.95881,1.21295 -2.22374,1.92494 -3.7948,2.25994 z m -4.793054,-3.65088 h 1.500752 c 1.571062,0 2.755132,0.20705 3.552212,-0.359 0.99347,-0.69311 1.4902,-1.1958 1.4902,-2.51272 0,-1.23606 -0.46208,-2.17754 -1.38623,-2.82445 -0.78553,-0.54294 -1.96382,-0.43374 -3.534887,-0.43374 h -1.622047 z"
         style="fill:#5b5b5b;fill-opacity:1;stroke-width:0.88718778"
         id="path934"
         inkscape:connector-curvature="0"
         sodipodi:nodetypes="ccscssccccscsscsscsscccsccccscscscc" />
    </g>
    <g
       aria-label="O"
       transform="scale(1.0188195,0.98152812)"
       style="font-style:normal;font-variant:normal;font-weight:normal;font-stretch:normal;font-size:36.4365387px;line-height:1.25;font-family:'Futura Round Medium';-inkscape-font-specification:'Futura Round Medium, ';letter-spacing:0px;word-spacing:0px;fill:#5b5b5b;fill-opacity:1;stroke:none;stroke-width:0.91091341"
       id="text864">
      <path
         d="m 128.60402,127.56352 q 5.5153,0 9.28705,4.12758 3.34476,3.64721 3.34476,8.50423 0,3.34476 -1.69017,6.26253 -1.67238,2.88218 -4.57236,4.57236 -2.98894,1.74354 -6.54719,1.74354 -3.14906,0 -6.03125,-1.56563 -3.4693,-1.88588 -5.17726,-5.15947 -1.36993,-2.63311 -1.36993,-5.97787 0,-5.19506 3.8785,-8.91343 2.046,-1.97483 4.73248,-2.88219 2.09937,-0.71165 4.14537,-0.71165 z m -0.10675,3.45151 q -4.18095,0 -6.81406,3.20243 -2.13495,2.57973 -2.13495,6.19136 0,3.73617 2.70427,6.3337 2.68649,2.57973 6.29812,2.57973 2.4374,0 4.59015,-1.28097 2.20611,-1.31655 3.34476,-3.50488 1.04968,-1.99262 1.04968,-4.35886 0,-3.84292 -2.57973,-6.5294 -2.54416,-2.63311 -6.45824,-2.63311 z"
         style="fill:#5b5b5b;fill-opacity:1;stroke-width:0.91091341"
         id="path931"
         inkscape:connector-curvature="0" />
    </g>
    <g
       aria-label="T"
       transform="scale(1.0439477,0.95790237)"
       style="font-style:normal;font-variant:normal;font-weight:normal;font-stretch:normal;font-size:38.83470154px;line-height:1.25;font-family:'Futura Round Medium';-inkscape-font-specification:'Futura Round Medium, ';letter-spacing:0px;word-spacing:0px;fill:#5b5b5b;fill-opacity:1;stroke:none;stroke-width:0.97086751"
       id="text868">
      <path
         d="m 150.16966,134.35431 v 20.78263 q 0,0.92915 -0.24651,1.17566 -0.24651,0.24651 -1.17566,0.24651 h -1.06189 q -0.91019,0 -1.17566,-0.24651 -0.24651,-0.24651 -0.24651,-1.17566 v -20.78263 h -4.53198 q -0.92915,0 -1.17566,-0.24651 -0.24651,-0.26547 -0.24651,-1.17566 v -0.83434 q 0,-0.91019 0.24651,-1.17566 0.26547,-0.24651 1.17566,-0.24651 h 12.95122 q 0.91019,0 1.1567,0.24651 0.26547,0.26547 0.26547,1.17566 v 0.83434 q 0,0.91019 -0.26547,1.17566 -0.24651,0.24651 -1.1567,0.24651 z"
         style="fill:#5b5b5b;fill-opacity:1;stroke-width:0.97086751"
         id="path928"
         inkscape:connector-curvature="0" />
    </g>
    <g
       aria-label="I"
       transform="scale(0.99949554,1.0005047)"
       style="font-style:normal;font-variant:normal;font-weight:normal;font-stretch:normal;font-size:37.13098907px;line-height:1.25;font-family:'Futura Round Medium';-inkscape-font-specification:'Futura Round Medium, ';letter-spacing:0px;word-spacing:0px;fill:#5b5b5b;fill-opacity:1;stroke:none;stroke-width:0.92827463"
       id="text872">
      <path
         d="m 169.90983,126.53791 v 22.0284 q 0,0.88839 -0.23569,1.12408 -0.2357,0.2357 -1.12408,0.2357 h -1.0153 q -0.88839,0 -1.12409,-0.2357 -0.23569,-0.23569 -0.23569,-1.12408 v -22.0284 q 0,-0.88838 0.23569,-1.12408 0.2357,-0.23569 1.12409,-0.23569 h 1.0153 q 0.88838,0 1.12408,0.23569 0.23569,0.2357 0.23569,1.12408 z"
         style="fill:#5b5b5b;fill-opacity:1;stroke-width:0.92827463"
         id="path925"
         inkscape:connector-curvature="0" />
    </g>
    <g
       aria-label="C"
       transform="scale(1.0357328,0.96550001)"
       style="font-style:normal;font-variant:normal;font-weight:normal;font-stretch:normal;font-size:37.04679489px;line-height:1.25;font-family:'Futura Round Medium';-inkscape-font-specification:'Futura Round Medium, ';letter-spacing:0px;word-spacing:0px;fill:#5b5b5b;fill-opacity:1;stroke:none;stroke-width:0.92617005"
       id="text876">
      <path
         d="m 188.98306,132.53771 v 1.1939 q 0,1.37478 -0.66931,1.37478 -0.23516,0 -0.68739,-0.23516 -2.04408,-1.06727 -2.96664,-1.3567 -0.90446,-0.28942 -2.27924,-0.28942 -4.39569,0 -7.05481,3.38269 -2.06218,2.60485 -2.06218,6.00563 0,4.23289 3.00282,6.9101 2.60485,2.31542 6.02372,2.31542 1.5195,0 2.73148,-0.39796 1.21198,-0.41606 2.71339,-1.42905 0.36178,-0.23517 0.57885,-0.23517 0.66931,0 0.66931,1.39288 v 1.32051 q 0,0.90447 -0.25325,1.13963 -0.36179,0.30751 -1.70039,0.8321 -2.24307,0.88638 -4.75748,0.88638 -3.32842,0 -6.16843,-1.55568 -3.41887,-1.88128 -5.2278,-5.40869 -1.37478,-2.71339 -1.37478,-5.73429 0,-3.16562 1.50141,-6.02372 1.75465,-3.32843 4.93836,-5.17353 3.00282,-1.73657 6.62067,-1.73657 3.25607,0 5.73429,1.41096 0.5065,0.28943 0.59695,0.48841 0.0905,0.1809 0.0905,0.92255 z"
         style="fill:#5b5b5b;fill-opacity:1;stroke-width:0.92617005"
         id="path922"
         inkscape:connector-curvature="0" />
    </g>
  </g>
</svg>
